<?xml version="1.0" encoding="UTF-8" standalone="no"?>
<!DOCTYPE svg PUBLIC "-//W3C//DTD SVG 1.1//EN"
 "http://www.w3.org/Graphics/SVG/1.1/DTD/svg11.dtd">
<!-- Generated by graphviz version 2.38.0 (20140413.2041)
 -->
<!-- Title: G Pages: 1 -->
<svg width="272pt" height="260pt"
 viewBox="0.00 0.00 272.18 260.00" xmlns="http://www.w3.org/2000/svg" xmlns:xlink="http://www.w3.org/1999/xlink">
<g id="graph0" class="graph" transform="scale(1 1) rotate(0) translate(4 256)">
<title>G</title><style>.edge>path:hover{stroke-width:8}</style>
<polygon fill="white" stroke="none" points="-4,4 -4,-256 268.18,-256 268.18,4 -4,4"/>
<!-- analyse_packets -->
<g id="node1" class="node"><title>analyse_packets</title><style>.edge>path:hover{stroke-width:8}</style>
<ellipse fill="#c04040" stroke="black" cx="112.852" cy="-162" rx="52.9593" ry="18"/>
<text text-anchor="middle" x="112.852" y="-159.5" font-family="Helvetica,sans-Serif" font-size="10.00" fill="#ffffff">analyse_packets</text>
</g>
<!-- geolocation -->
<g id="node2" class="node"><title>geolocation</title><style>.edge>path:hover{stroke-width:8}</style>
<ellipse fill="#98ac49" stroke="black" cx="38.8518" cy="-90" rx="38.7041" ry="18"/>
<text text-anchor="middle" x="38.8518" y="-87.5" font-family="Helvetica,sans-Serif" font-size="10.00" fill="#000000">geolocation</text>
</g>
<!-- analyse_packets&#45;&gt;geolocation -->
<g id="edge1" class="edge"><title>analyse_packets&#45;&gt;geolocation</title><style>.edge>path:hover{stroke-width:8}</style>
<path fill="none" stroke="black" d="M95.6887,-144.765C85.8626,-135.47 73.3864,-123.668 62.6279,-113.491"/>
<polygon fill="#c04040" stroke="black" points="64.83,-110.756 55.1601,-106.427 60.0196,-115.841 64.83,-110.756"/>
</g>
<!-- pcap_analyzer -->
<g id="node5" class="node"><title>pcap_analyzer</title><style>.edge>path:hover{stroke-width:8}</style>
<ellipse fill="#8b439d" stroke="black" cx="143.852" cy="-18" rx="47.1863" ry="18"/>
<text text-anchor="middle" x="143.852" y="-15.5" font-family="Helvetica,sans-Serif" font-size="10.00" fill="#ffffff">pcap_analyzer</text>
</g>
<!-- analyse_packets&#45;&gt;pcap_analyzer -->
<g id="edge2" class="edge"><title>analyse_packets&#45;&gt;pcap_analyzer</title><style>.edge>path:hover{stroke-width:8}</style>
<path fill="none" stroke="black" d="M114.098,-143.739C115.653,-125.661 118.869,-96.5391 124.852,-72 126.991,-63.223 130.063,-53.8755 133.114,-45.5134"/>
<polygon fill="#c04040" stroke="black" points="136.484,-46.498 136.762,-35.9068 129.94,-44.013 136.484,-46.498"/>
</g>
<!-- geolocation&#45;&gt;pcap_analyzer -->
<g id="edge3" class="edge"><title>geolocation&#45;&gt;pcap_analyzer</title><style>.edge>path:hover{stroke-width:8}</style>
<path fill="none" stroke="black" d="M60.1001,-74.8345C75.3068,-64.6966 96.0136,-50.8921 113.033,-39.546"/>
<polygon fill="#98ac49" stroke="black" points="115.169,-42.3285 121.548,-33.8693 111.286,-36.5041 115.169,-42.3285"/>
</g>
<!-- graph_analysis -->
<g id="node3" class="node"><title>graph_analysis</title><style>.edge>path:hover{stroke-width:8}</style>
<ellipse fill="#4cb375" stroke="black" cx="181.852" cy="-90" rx="48.0418" ry="18"/>
<text text-anchor="middle" x="181.852" y="-87.5" font-family="Helvetica,sans-Serif" font-size="10.00" fill="#000000">graph_analysis</text>
</g>
<!-- graph_analysis&#45;&gt;pcap_analyzer -->
<g id="edge4" class="edge"><title>graph_analysis&#45;&gt;pcap_analyzer</title><style>.edge>path:hover{stroke-width:8}</style>
<path fill="none" stroke="black" d="M172.653,-72.055C168.219,-63.8866 162.804,-53.9116 157.871,-44.8244"/>
<polygon fill="#4cb375" stroke="black" points="160.813,-42.9077 152.966,-35.789 154.661,-46.2474 160.813,-42.9077"/>
</g>
<!-- parse_pcap -->
<g id="node4" class="node"><title>parse_pcap</title><style>.edge>path:hover{stroke-width:8}</style>
<ellipse fill="#2f73db" stroke="black" cx="112.852" cy="-234" rx="39.3809" ry="18"/>
<text text-anchor="middle" x="112.852" y="-231.5" font-family="Helvetica,sans-Serif" font-size="10.00" fill="#ffffff">parse_pcap</text>
</g>
<!-- parse_pcap&#45;&gt;analyse_packets -->
<g id="edge5" class="edge"><title>parse_pcap&#45;&gt;analyse_packets</title><style>.edge>path:hover{stroke-width:8}</style>
<path fill="none" stroke="black" d="M112.852,-215.697C112.852,-207.983 112.852,-198.712 112.852,-190.112"/>
<polygon fill="#2f73db" stroke="black" points="116.352,-190.104 112.852,-180.104 109.352,-190.104 116.352,-190.104"/>
</g>
<!-- parse_pcap&#45;&gt;geolocation -->
<g id="edge6" class="edge"><title>parse_pcap&#45;&gt;geolocation</title><style>.edge>path:hover{stroke-width:8}</style>
<path fill="none" stroke="black" d="M89.5977,-219.296C75.9974,-209.993 59.7929,-196.415 50.8518,-180 40.5651,-161.115 37.8796,-136.744 37.5906,-118.281"/>
<polygon fill="#2f73db" stroke="black" points="41.0911,-118.202 37.658,-108.179 34.0912,-118.155 41.0911,-118.202"/>
</g>
<!-- parse_pcap&#45;&gt;graph_analysis -->
<g id="edge7" class="edge"><title>parse_pcap&#45;&gt;graph_analysis</title><style>.edge>path:hover{stroke-width:8}</style>
<path fill="none" stroke="black" d="M257.852,-161C265.163,-138.344 244.468,-120.365 222.84,-108.304"/>
<polygon fill="#2f73db" stroke="black" points="224.404,-105.172 213.918,-103.658 221.171,-111.381 224.404,-105.172"/>
<path fill="none" stroke="black" d="M151.167,-229.108C189.237,-222.783 243.902,-206.229 257.852,-163"/>
</g>
<!-- parse_pcap&#45;&gt;pcap_analyzer -->
<g id="edge8" class="edge"><title>parse_pcap&#45;&gt;pcap_analyzer</title><style>.edge>path:hover{stroke-width:8}</style>
<path fill="none" stroke="black" d="M257.852,-161C270.273,-122.508 262.88,-104.536 238.852,-72 226.24,-54.9231 206.388,-42.6244 188.085,-34.2002"/>
<polygon fill="#2f73db" stroke="black" points="189.269,-30.8993 178.702,-30.1433 186.492,-37.3245 189.269,-30.8993"/>
</g>
</g>
</svg>
